<?xml version="1.0" standalone="no"?>
<!DOCTYPE svg PUBLIC "-//W3C//DTD SVG 20010904//EN"
 "http://www.w3.org/TR/2001/REC-SVG-20010904/DTD/svg10.dtd">
<svg version="1.0" xmlns="http://www.w3.org/2000/svg"
 width="512.000000pt" height="512.000000pt" viewBox="0 0 512.000000 512.000000"
 preserveAspectRatio="xMidYMid meet">
<metadata>
Created by potrace 1.14, written by Peter Selinger 2001-2017
</metadata>
<g transform="translate(0.000000,512.000000) scale(0.100000,-0.100000)"
fill="#000000" stroke="none">
<path d="M1702 5017 c-21 -23 -22 -30 -22 -280 l0 -257 -138 0 c-132 0 -140
-1 -160 -23 -19 -21 -22 -34 -22 -120 l0 -97 -132 0 c-112 0 -140 -4 -178 -21
-72 -32 -106 -65 -139 -130 l-31 -62 0 -1466 0 -1466 24 -50 c29 -64 77 -112
141 -141 44 -21 65 -24 183 -24 l132 0 0 -98 c0 -90 2 -100 23 -120 22 -20 33
-22 160 -22 l137 0 0 -258 c0 -257 0 -259 23 -280 l23 -22 835 0 836 0 21 23
c21 23 22 30 22 280 l0 257 138 0 c132 0 140 1 160 23 19 21 22 34 22 120 l0
97 133 0 c117 0 138 3 182 24 64 29 112 77 141 141 l24 50 0 1465 0 1465 -24
50 c-29 64 -77 112 -141 141 -44 21 -65 24 -182 24 l-133 0 0 98 c0 90 -2 100
-23 120 -22 20 -33 22 -160 22 l-137 0 0 258 c0 257 0 259 -23 280 l-23 22
-835 0 -836 0 -21 -23z m1578 -257 l0 -120 -720 0 -720 0 0 120 0 120 720 0
720 0 0 -120z m0 -400 l0 -120 -720 0 -720 0 0 120 0 120 720 0 720 0 0 -120z
m-1600 -80 l0 -40 -80 0 -80 0 0 40 0 40 80 0 80 0 0 -40z m1920 0 l0 -40 -80
0 -80 0 0 40 0 40 80 0 80 0 0 -40z m399 -213 c19 -7 44 -25 55 -40 l21 -28 0
-1439 0 -1439 -21 -28 c-11 -15 -36 -33 -55 -40 -49 -17 -2829 -17 -2878 0
-19 7 -44 25 -55 40 l-21 28 0 1439 0 1439 21 28 c11 15 36 33 55 40 49 17
2829 17 2878 0z m-2319 -3227 l0 -40 -80 0 -80 0 0 40 0 40 80 0 80 0 0 -40z
m1600 -80 l0 -120 -720 0 -720 0 0 120 0 120 720 0 720 0 0 -120z m320 80 l0
-40 -80 0 -80 0 0 40 0 40 80 0 80 0 0 -40z m-320 -480 l0 -120 -720 0 -720 0
0 120 0 120 720 0 720 0 0 -120z"/>
<path d="M1142 3977 l-22 -23 0 -1395 0 -1396 23 -21 23 -22 1395 0 1396 0 21
23 22 23 0 1395 0 1396 -23 21 -23 22 -1395 0 -1396 0 -21 -23z m2698 -1417
l0 -1280 -1280 0 -1280 0 0 1280 0 1280 1280 0 1280 0 0 -1280z"/>
<path d="M2237 3740 c-94 -24 -203 -103 -254 -184 -66 -104 -81 -236 -39 -339
83 -200 390 -563 543 -641 86 -44 173 -6 317 138 155 155 298 344 359 474 93
197 1 425 -211 525 -61 29 -75 32 -167 32 -89 0 -107 -4 -162 -29 l-63 -29
-61 28 c-69 30 -192 42 -262 25z m190 -175 c20 -9 51 -27 69 -40 43 -33 86
-32 130 1 130 100 319 54 386 -93 39 -87 22 -156 -74 -298 -107 -159 -338
-405 -379 -405 -30 0 -225 200 -322 330 -43 57 -96 140 -118 185 -39 78 -40
82 -29 132 19 88 80 161 159 189 49 18 134 17 178 -1z"/>
<path d="M2982 2457 l-22 -23 0 -515 0 -516 23 -21 c22 -21 32 -22 218 -22
191 0 196 0 217 23 l22 23 0 515 0 516 -23 21 c-22 21 -32 22 -218 22 -191 0
-196 0 -217 -23z m298 -537 l0 -400 -80 0 -80 0 0 400 0 400 80 0 80 0 0 -400z"/>
<path d="M2342 2137 c-22 -23 -22 -28 -22 -378 l0 -356 23 -21 c22 -21 32 -22
218 -22 191 0 196 0 217 23 22 23 22 28 22 378 l0 356 -23 21 c-22 21 -32 22
-218 22 -191 0 -196 0 -217 -23z m298 -377 l0 -240 -80 0 -80 0 0 240 0 240
80 0 80 0 0 -240z"/>
<path d="M1702 1817 c-21 -22 -22 -32 -22 -218 0 -258 -20 -239 241 -239 258
0 239 -20 239 241 0 258 20 239 -241 239 -191 0 -196 0 -217 -23z m298 -217
l0 -80 -80 0 -80 0 0 80 0 80 80 0 80 0 0 -80z"/>
</g>
</svg>
